<svg id="Layer_1" data-name="Layer 1" xmlns="http://www.w3.org/2000/svg" viewBox="0 0 256 256"><defs><style>.cls-1{fill:#595959;}</style></defs><circle class="cls-1" cx="75.47" cy="121.23" r="4.43"/><circle class="cls-1" cx="80.31" cy="104.79" r="4.43"/><circle class="cls-1" cx="90.13" cy="90.84" r="4.38"/><circle class="cls-1" cx="103.93" cy="80.72" r="4.38"/><circle class="cls-1" cx="120.21" cy="75.57" r="4.38"/><circle class="cls-1" cx="83.31" cy="128.31" r="3.72"/><circle class="cls-1" cx="85.19" cy="115.02" r="3.72"/><circle class="cls-1" cx="91.45" cy="102.09" r="3.72"/><circle class="cls-1" cx="101.58" cy="91.81" r="3.72"/><circle class="cls-1" cx="114.46" cy="85.35" r="3.72"/><circle class="cls-1" cx="127.69" cy="83.26" r="3.72"/><circle class="cls-1" cx="121.23" cy="180.53" r="4.43"/><circle class="cls-1" cx="104.79" cy="175.69" r="4.43"/><circle class="cls-1" cx="90.84" cy="165.87" r="4.38"/><circle class="cls-1" cx="80.72" cy="152.07" r="4.38"/><circle class="cls-1" cx="75.57" cy="135.79" r="4.38"/><circle class="cls-1" cx="128.31" cy="172.69" r="3.72"/><circle class="cls-1" cx="115.02" cy="170.81" r="3.72"/><circle class="cls-1" cx="102.09" cy="164.55" r="3.72"/><circle class="cls-1" cx="91.81" cy="154.42" r="3.72"/><circle class="cls-1" cx="85.35" cy="141.54" r="3.72"/><circle class="cls-1" cx="180.53" cy="134.77" r="4.43"/><circle class="cls-1" cx="175.69" cy="151.21" r="4.43"/><circle class="cls-1" cx="165.87" cy="165.16" r="4.38"/><circle class="cls-1" cx="152.07" cy="175.28" r="4.38"/><circle class="cls-1" cx="135.79" cy="180.43" r="4.38"/><circle class="cls-1" cx="172.69" cy="127.69" r="3.72"/><circle class="cls-1" cx="170.81" cy="140.98" r="3.72"/><circle class="cls-1" cx="164.55" cy="153.91" r="3.72"/><circle class="cls-1" cx="154.42" cy="164.19" r="3.72"/><circle class="cls-1" cx="141.54" cy="170.65" r="3.72"/><circle class="cls-1" cx="134.77" cy="75.47" r="4.43"/><circle class="cls-1" cx="151.21" cy="80.31" r="4.43"/><circle class="cls-1" cx="165.16" cy="90.13" r="4.38"/><circle class="cls-1" cx="175.28" cy="103.93" r="4.38"/><circle class="cls-1" cx="180.43" cy="120.21" r="4.38"/><circle class="cls-1" cx="140.98" cy="85.19" r="3.72"/><circle class="cls-1" cx="153.91" cy="91.45" r="3.72"/><circle class="cls-1" cx="164.19" cy="101.58" r="3.72"/><circle class="cls-1" cx="170.65" cy="114.46" r="3.72"/><circle class="cls-1" cx="24.86" cy="114.59" r="8.63"/><circle class="cls-1" cx="34.42" cy="82.49" r="8.63"/><circle class="cls-1" cx="53.68" cy="55.03" r="8.63"/><circle class="cls-1" cx="80.78" cy="35.27" r="8.63"/><circle class="cls-1" cx="112.74" cy="25.14" r="8.63"/><circle class="cls-1" cx="40.34" cy="128.61" r="7.28"/><circle class="cls-1" cx="43.9" cy="102.54" r="7.28"/><circle class="cls-1" cx="56.31" cy="77.14" r="7.28"/><circle class="cls-1" cx="76.14" cy="56.96" r="7.28"/><circle class="cls-1" cx="101.39" cy="44.19" r="7.28"/><circle class="cls-1" cx="127.39" cy="40.19" r="7.28"/><circle class="cls-1" cx="54.39" cy="118.51" r="6.21"/><circle class="cls-1" cx="61.17" cy="95.47" r="6.21"/><circle class="cls-1" cx="74.93" cy="75.93" r="6.13"/><circle class="cls-1" cx="94.26" cy="61.74" r="6.13"/><circle class="cls-1" cx="117.09" cy="54.53" r="6.13"/><circle class="cls-1" cx="65.37" cy="128.43" r="5.21"/><circle class="cls-1" cx="68.01" cy="109.81" r="5.21"/><circle class="cls-1" cx="76.79" cy="91.69" r="5.21"/><circle class="cls-1" cx="90.98" cy="77.29" r="5.21"/><circle class="cls-1" cx="109.03" cy="68.23" r="5.21"/><circle class="cls-1" cx="127.57" cy="65.3" r="5.21"/><circle class="cls-1" cx="114.59" cy="231.14" r="8.63"/><circle class="cls-1" cx="82.49" cy="221.58" r="8.63"/><circle class="cls-1" cx="55.03" cy="202.32" r="8.63"/><circle class="cls-1" cx="35.27" cy="175.22" r="8.63"/><circle class="cls-1" cx="25.14" cy="143.26" r="8.63"/><circle class="cls-1" cx="128.61" cy="215.66" r="7.28"/><circle class="cls-1" cx="102.54" cy="212.1" r="7.28"/><circle class="cls-1" cx="77.14" cy="199.69" r="7.28"/><circle class="cls-1" cx="56.96" cy="179.86" r="7.28"/><circle class="cls-1" cx="44.19" cy="154.61" r="7.28"/><circle class="cls-1" cx="118.51" cy="201.61" r="6.21"/><circle class="cls-1" cx="95.47" cy="194.83" r="6.21"/><circle class="cls-1" cx="75.93" cy="181.07" r="6.13"/><circle class="cls-1" cx="61.74" cy="161.74" r="6.13"/><circle class="cls-1" cx="54.53" cy="138.91" r="6.13"/><circle class="cls-1" cx="128.43" cy="190.63" r="5.21"/><circle class="cls-1" cx="109.81" cy="187.99" r="5.21"/><circle class="cls-1" cx="91.69" cy="179.21" r="5.21"/><circle class="cls-1" cx="77.29" cy="165.02" r="5.21"/><circle class="cls-1" cx="68.23" cy="146.97" r="5.21"/><circle class="cls-1" cx="231.14" cy="141.41" r="8.63"/><circle class="cls-1" cx="221.58" cy="173.51" r="8.63"/><circle class="cls-1" cx="202.32" cy="200.97" r="8.63"/><circle class="cls-1" cx="175.22" cy="220.73" r="8.63"/><circle class="cls-1" cx="143.26" cy="230.86" r="8.63"/><circle class="cls-1" cx="215.66" cy="127.39" r="7.28"/><circle class="cls-1" cx="212.1" cy="153.46" r="7.28"/><circle class="cls-1" cx="199.69" cy="178.86" r="7.28"/><circle class="cls-1" cx="179.86" cy="199.04" r="7.28"/><circle class="cls-1" cx="154.61" cy="211.81" r="7.28"/><circle class="cls-1" cx="201.61" cy="137.49" r="6.21"/><circle class="cls-1" cx="194.83" cy="160.53" r="6.21"/><circle class="cls-1" cx="181.07" cy="180.07" r="6.13"/><circle class="cls-1" cx="161.74" cy="194.26" r="6.13"/><circle class="cls-1" cx="138.91" cy="201.47" r="6.13"/><circle class="cls-1" cx="190.63" cy="127.57" r="5.21"/><circle class="cls-1" cx="187.99" cy="146.19" r="5.21"/><circle class="cls-1" cx="179.21" cy="164.31" r="5.21"/><circle class="cls-1" cx="165.02" cy="178.71" r="5.21"/><circle class="cls-1" cx="146.97" cy="187.77" r="5.21"/><circle class="cls-1" cx="141.41" cy="24.86" r="8.63"/><circle class="cls-1" cx="173.51" cy="34.42" r="8.63"/><circle class="cls-1" cx="200.97" cy="53.68" r="8.63"/><circle class="cls-1" cx="220.73" cy="80.78" r="8.63"/><circle class="cls-1" cx="230.86" cy="112.74" r="8.63"/><circle class="cls-1" cx="153.46" cy="43.9" r="7.28"/><circle class="cls-1" cx="178.86" cy="56.31" r="7.28"/><circle class="cls-1" cx="199.04" cy="76.14" r="7.28"/><circle class="cls-1" cx="211.81" cy="101.39" r="7.28"/><circle class="cls-1" cx="137.49" cy="54.39" r="6.21"/><circle class="cls-1" cx="160.53" cy="61.17" r="6.21"/><circle class="cls-1" cx="180.07" cy="74.93" r="6.13"/><circle class="cls-1" cx="194.26" cy="94.26" r="6.13"/><circle class="cls-1" cx="201.47" cy="117.09" r="6.13"/><circle class="cls-1" cx="146.19" cy="68.01" r="5.21"/><circle class="cls-1" cx="164.31" cy="76.79" r="5.21"/><circle class="cls-1" cx="178.71" cy="90.98" r="5.21"/><circle class="cls-1" cx="187.77" cy="109.03" r="5.21"/></svg>